<?xml version="1.0" encoding="UTF-8" standalone="no"?>
<!DOCTYPE svg PUBLIC "-//W3C//DTD SVG 1.1//EN"
 "http://www.w3.org/Graphics/SVG/1.1/DTD/svg11.dtd">
<!-- Generated by graphviz version 2.43.0 (0)
 -->
<!-- Title: Tree Pages: 1 -->
<svg width="596pt" height="671pt"
 viewBox="0.00 0.00 595.50 671.00" xmlns="http://www.w3.org/2000/svg" xmlns:xlink="http://www.w3.org/1999/xlink">
<g id="graph0" class="graph" transform="scale(1 1) rotate(0) translate(4 667)">
<title>Tree</title>
<polygon fill="white" stroke="transparent" points="-4,4 -4,-667 591.5,-667 591.5,4 -4,4"/>
<!-- 0 -->
<g id="node1" class="node">
<title>0</title>
<path fill="#f7f3fd" stroke="black" d="M305,-663C305,-663 197,-663 197,-663 191,-663 185,-657 185,-651 185,-651 185,-592 185,-592 185,-586 191,-580 197,-580 197,-580 305,-580 305,-580 311,-580 317,-586 317,-592 317,-592 317,-651 317,-651 317,-657 311,-663 305,-663"/>
<text text-anchor="start" x="199" y="-647.8" font-family="Helvetica,sans-Serif" font-size="14.00">petal.length ≤ 2.6</text>
<text text-anchor="start" x="215.5" y="-632.8" font-family="Helvetica,sans-Serif" font-size="14.00">gini = 0.665</text>
<text text-anchor="start" x="206" y="-617.8" font-family="Helvetica,sans-Serif" font-size="14.00">samples = 120</text>
<text text-anchor="start" x="193" y="-602.8" font-family="Helvetica,sans-Serif" font-size="14.00">value = [39, 37, 44]</text>
<text text-anchor="start" x="225" y="-587.8" font-family="Helvetica,sans-Serif" font-size="14.00">class = r</text>
</g>
<!-- 1 -->
<g id="node2" class="node">
<title>1</title>
<path fill="#e58139" stroke="black" d="M228.5,-536.5C228.5,-536.5 135.5,-536.5 135.5,-536.5 129.5,-536.5 123.5,-530.5 123.5,-524.5 123.5,-524.5 123.5,-480.5 123.5,-480.5 123.5,-474.5 129.5,-468.5 135.5,-468.5 135.5,-468.5 228.5,-468.5 228.5,-468.5 234.5,-468.5 240.5,-474.5 240.5,-480.5 240.5,-480.5 240.5,-524.5 240.5,-524.5 240.5,-530.5 234.5,-536.5 228.5,-536.5"/>
<text text-anchor="start" x="154" y="-521.3" font-family="Helvetica,sans-Serif" font-size="14.00">gini = 0.0</text>
<text text-anchor="start" x="141" y="-506.3" font-family="Helvetica,sans-Serif" font-size="14.00">samples = 39</text>
<text text-anchor="start" x="131.5" y="-491.3" font-family="Helvetica,sans-Serif" font-size="14.00">value = [39, 0, 0]</text>
<text text-anchor="start" x="155" y="-476.3" font-family="Helvetica,sans-Serif" font-size="14.00">class = v</text>
</g>
<!-- 0&#45;&gt;1 -->
<g id="edge1" class="edge">
<title>0&#45;&gt;1</title>
<path fill="none" stroke="black" d="M227.06,-579.91C220.49,-568.76 213.35,-556.66 206.73,-545.44"/>
<polygon fill="black" stroke="black" points="209.65,-543.5 201.56,-536.67 203.63,-547.06 209.65,-543.5"/>
<text text-anchor="middle" x="195.31" y="-557.17" font-family="Helvetica,sans-Serif" font-size="14.00">True</text>
</g>
<!-- 2 -->
<g id="node3" class="node">
<title>2</title>
<path fill="#ebe0fb" stroke="black" d="M371.5,-544C371.5,-544 270.5,-544 270.5,-544 264.5,-544 258.5,-538 258.5,-532 258.5,-532 258.5,-473 258.5,-473 258.5,-467 264.5,-461 270.5,-461 270.5,-461 371.5,-461 371.5,-461 377.5,-461 383.5,-467 383.5,-473 383.5,-473 383.5,-532 383.5,-532 383.5,-538 377.5,-544 371.5,-544"/>
<text text-anchor="start" x="268" y="-528.8" font-family="Helvetica,sans-Serif" font-size="14.00">petal.width ≤ 1.65</text>
<text text-anchor="start" x="285.5" y="-513.8" font-family="Helvetica,sans-Serif" font-size="14.00">gini = 0.496</text>
<text text-anchor="start" x="280" y="-498.8" font-family="Helvetica,sans-Serif" font-size="14.00">samples = 81</text>
<text text-anchor="start" x="266.5" y="-483.8" font-family="Helvetica,sans-Serif" font-size="14.00">value = [0, 37, 44]</text>
<text text-anchor="start" x="295" y="-468.8" font-family="Helvetica,sans-Serif" font-size="14.00">class = r</text>
</g>
<!-- 0&#45;&gt;2 -->
<g id="edge2" class="edge">
<title>0&#45;&gt;2</title>
<path fill="none" stroke="black" d="M275.29,-579.91C280.55,-571.1 286.18,-561.7 291.62,-552.61"/>
<polygon fill="black" stroke="black" points="294.63,-554.4 296.76,-544.02 288.62,-550.81 294.63,-554.4"/>
<text text-anchor="middle" x="302.85" y="-564.57" font-family="Helvetica,sans-Serif" font-size="14.00">False</text>
</g>
<!-- 3 -->
<g id="node4" class="node">
<title>3</title>
<path fill="#4fe88f" stroke="black" d="M300,-425C300,-425 196,-425 196,-425 190,-425 184,-419 184,-413 184,-413 184,-354 184,-354 184,-348 190,-342 196,-342 196,-342 300,-342 300,-342 306,-342 312,-348 312,-354 312,-354 312,-413 312,-413 312,-419 306,-425 300,-425"/>
<text text-anchor="start" x="192" y="-409.8" font-family="Helvetica,sans-Serif" font-size="14.00">petal.length ≤ 4.95</text>
<text text-anchor="start" x="216" y="-394.8" font-family="Helvetica,sans-Serif" font-size="14.00">gini = 0.18</text>
<text text-anchor="start" x="207" y="-379.8" font-family="Helvetica,sans-Serif" font-size="14.00">samples = 40</text>
<text text-anchor="start" x="197.5" y="-364.8" font-family="Helvetica,sans-Serif" font-size="14.00">value = [0, 36, 4]</text>
<text text-anchor="start" x="220.5" y="-349.8" font-family="Helvetica,sans-Serif" font-size="14.00">class = a</text>
</g>
<!-- 2&#45;&gt;3 -->
<g id="edge3" class="edge">
<title>2&#45;&gt;3</title>
<path fill="none" stroke="black" d="M295.67,-460.91C290.18,-452.1 284.31,-442.7 278.64,-433.61"/>
<polygon fill="black" stroke="black" points="281.55,-431.65 273.28,-425.02 275.61,-435.36 281.55,-431.65"/>
</g>
<!-- 10 -->
<g id="node11" class="node">
<title>10</title>
<path fill="#843ee6" stroke="black" d="M446,-425C446,-425 342,-425 342,-425 336,-425 330,-419 330,-413 330,-413 330,-354 330,-354 330,-348 336,-342 342,-342 342,-342 446,-342 446,-342 452,-342 458,-348 458,-354 458,-354 458,-413 458,-413 458,-419 452,-425 446,-425"/>
<text text-anchor="start" x="338" y="-409.8" font-family="Helvetica,sans-Serif" font-size="14.00">petal.length ≤ 4.85</text>
<text text-anchor="start" x="358.5" y="-394.8" font-family="Helvetica,sans-Serif" font-size="14.00">gini = 0.048</text>
<text text-anchor="start" x="353" y="-379.8" font-family="Helvetica,sans-Serif" font-size="14.00">samples = 41</text>
<text text-anchor="start" x="343.5" y="-364.8" font-family="Helvetica,sans-Serif" font-size="14.00">value = [0, 1, 40]</text>
<text text-anchor="start" x="368" y="-349.8" font-family="Helvetica,sans-Serif" font-size="14.00">class = r</text>
</g>
<!-- 2&#45;&gt;10 -->
<g id="edge10" class="edge">
<title>2&#45;&gt;10</title>
<path fill="none" stroke="black" d="M346.33,-460.91C351.82,-452.1 357.69,-442.7 363.36,-433.61"/>
<polygon fill="black" stroke="black" points="366.39,-435.36 368.72,-425.02 360.45,-431.65 366.39,-435.36"/>
</g>
<!-- 4 -->
<g id="node5" class="node">
<title>4</title>
<path fill="#39e581" stroke="black" d="M153.5,-298.5C153.5,-298.5 60.5,-298.5 60.5,-298.5 54.5,-298.5 48.5,-292.5 48.5,-286.5 48.5,-286.5 48.5,-242.5 48.5,-242.5 48.5,-236.5 54.5,-230.5 60.5,-230.5 60.5,-230.5 153.5,-230.5 153.5,-230.5 159.5,-230.5 165.5,-236.5 165.5,-242.5 165.5,-242.5 165.5,-286.5 165.5,-286.5 165.5,-292.5 159.5,-298.5 153.5,-298.5"/>
<text text-anchor="start" x="79" y="-283.3" font-family="Helvetica,sans-Serif" font-size="14.00">gini = 0.0</text>
<text text-anchor="start" x="66" y="-268.3" font-family="Helvetica,sans-Serif" font-size="14.00">samples = 35</text>
<text text-anchor="start" x="56.5" y="-253.3" font-family="Helvetica,sans-Serif" font-size="14.00">value = [0, 35, 0]</text>
<text text-anchor="start" x="79.5" y="-238.3" font-family="Helvetica,sans-Serif" font-size="14.00">class = a</text>
</g>
<!-- 3&#45;&gt;4 -->
<g id="edge4" class="edge">
<title>3&#45;&gt;4</title>
<path fill="none" stroke="black" d="M199.08,-341.91C184.72,-329.99 169.03,-316.98 154.75,-305.12"/>
<polygon fill="black" stroke="black" points="156.9,-302.36 146.97,-298.67 152.43,-307.75 156.9,-302.36"/>
</g>
<!-- 5 -->
<g id="node6" class="node">
<title>5</title>
<path fill="#a06aec" stroke="black" d="M302.5,-306C302.5,-306 195.5,-306 195.5,-306 189.5,-306 183.5,-300 183.5,-294 183.5,-294 183.5,-235 183.5,-235 183.5,-229 189.5,-223 195.5,-223 195.5,-223 302.5,-223 302.5,-223 308.5,-223 314.5,-229 314.5,-235 314.5,-235 314.5,-294 314.5,-294 314.5,-300 308.5,-306 302.5,-306"/>
<text text-anchor="start" x="191.5" y="-290.8" font-family="Helvetica,sans-Serif" font-size="14.00">sepal.length ≤ 6.05</text>
<text text-anchor="start" x="217" y="-275.8" font-family="Helvetica,sans-Serif" font-size="14.00">gini = 0.32</text>
<text text-anchor="start" x="211.5" y="-260.8" font-family="Helvetica,sans-Serif" font-size="14.00">samples = 5</text>
<text text-anchor="start" x="202" y="-245.8" font-family="Helvetica,sans-Serif" font-size="14.00">value = [0, 1, 4]</text>
<text text-anchor="start" x="223" y="-230.8" font-family="Helvetica,sans-Serif" font-size="14.00">class = r</text>
</g>
<!-- 3&#45;&gt;5 -->
<g id="edge5" class="edge">
<title>3&#45;&gt;5</title>
<path fill="none" stroke="black" d="M248.35,-341.91C248.42,-333.65 248.49,-324.86 248.57,-316.3"/>
<polygon fill="black" stroke="black" points="252.07,-316.05 248.65,-306.02 245.07,-315.99 252.07,-316.05"/>
</g>
<!-- 6 -->
<g id="node7" class="node">
<title>6</title>
<path fill="#ffffff" stroke="black" d="M168,-187C168,-187 70,-187 70,-187 64,-187 58,-181 58,-175 58,-175 58,-116 58,-116 58,-110 64,-104 70,-104 70,-104 168,-104 168,-104 174,-104 180,-110 180,-116 180,-116 180,-175 180,-175 180,-181 174,-187 168,-187"/>
<text text-anchor="start" x="66" y="-171.8" font-family="Helvetica,sans-Serif" font-size="14.00">petal.width ≤ 1.55</text>
<text text-anchor="start" x="91" y="-156.8" font-family="Helvetica,sans-Serif" font-size="14.00">gini = 0.5</text>
<text text-anchor="start" x="81.5" y="-141.8" font-family="Helvetica,sans-Serif" font-size="14.00">samples = 2</text>
<text text-anchor="start" x="72" y="-126.8" font-family="Helvetica,sans-Serif" font-size="14.00">value = [0, 1, 1]</text>
<text text-anchor="start" x="91.5" y="-111.8" font-family="Helvetica,sans-Serif" font-size="14.00">class = a</text>
</g>
<!-- 5&#45;&gt;6 -->
<g id="edge6" class="edge">
<title>5&#45;&gt;6</title>
<path fill="none" stroke="black" d="M203.9,-222.91C193.51,-213.56 182.38,-203.54 171.7,-193.93"/>
<polygon fill="black" stroke="black" points="173.8,-191.11 164.02,-187.02 169.11,-196.31 173.8,-191.11"/>
</g>
<!-- 9 -->
<g id="node10" class="node">
<title>9</title>
<path fill="#8139e5" stroke="black" d="M296,-179.5C296,-179.5 210,-179.5 210,-179.5 204,-179.5 198,-173.5 198,-167.5 198,-167.5 198,-123.5 198,-123.5 198,-117.5 204,-111.5 210,-111.5 210,-111.5 296,-111.5 296,-111.5 302,-111.5 308,-117.5 308,-123.5 308,-123.5 308,-167.5 308,-167.5 308,-173.5 302,-179.5 296,-179.5"/>
<text text-anchor="start" x="225" y="-164.3" font-family="Helvetica,sans-Serif" font-size="14.00">gini = 0.0</text>
<text text-anchor="start" x="215.5" y="-149.3" font-family="Helvetica,sans-Serif" font-size="14.00">samples = 3</text>
<text text-anchor="start" x="206" y="-134.3" font-family="Helvetica,sans-Serif" font-size="14.00">value = [0, 0, 3]</text>
<text text-anchor="start" x="227" y="-119.3" font-family="Helvetica,sans-Serif" font-size="14.00">class = r</text>
</g>
<!-- 5&#45;&gt;9 -->
<g id="edge9" class="edge">
<title>5&#45;&gt;9</title>
<path fill="none" stroke="black" d="M250.39,-222.91C250.75,-212.2 251.15,-200.62 251.52,-189.78"/>
<polygon fill="black" stroke="black" points="255.02,-189.78 251.87,-179.67 248.03,-189.54 255.02,-189.78"/>
</g>
<!-- 7 -->
<g id="node8" class="node">
<title>7</title>
<path fill="#8139e5" stroke="black" d="M98,-68C98,-68 12,-68 12,-68 6,-68 0,-62 0,-56 0,-56 0,-12 0,-12 0,-6 6,0 12,0 12,0 98,0 98,0 104,0 110,-6 110,-12 110,-12 110,-56 110,-56 110,-62 104,-68 98,-68"/>
<text text-anchor="start" x="27" y="-52.8" font-family="Helvetica,sans-Serif" font-size="14.00">gini = 0.0</text>
<text text-anchor="start" x="17.5" y="-37.8" font-family="Helvetica,sans-Serif" font-size="14.00">samples = 1</text>
<text text-anchor="start" x="8" y="-22.8" font-family="Helvetica,sans-Serif" font-size="14.00">value = [0, 0, 1]</text>
<text text-anchor="start" x="29" y="-7.8" font-family="Helvetica,sans-Serif" font-size="14.00">class = r</text>
</g>
<!-- 6&#45;&gt;7 -->
<g id="edge7" class="edge">
<title>6&#45;&gt;7</title>
<path fill="none" stroke="black" d="M95.17,-103.73C90.1,-95.06 84.75,-85.9 79.65,-77.18"/>
<polygon fill="black" stroke="black" points="82.53,-75.17 74.46,-68.3 76.49,-78.7 82.53,-75.17"/>
</g>
<!-- 8 -->
<g id="node9" class="node">
<title>8</title>
<path fill="#39e581" stroke="black" d="M226,-68C226,-68 140,-68 140,-68 134,-68 128,-62 128,-56 128,-56 128,-12 128,-12 128,-6 134,0 140,0 140,0 226,0 226,0 232,0 238,-6 238,-12 238,-12 238,-56 238,-56 238,-62 232,-68 226,-68"/>
<text text-anchor="start" x="155" y="-52.8" font-family="Helvetica,sans-Serif" font-size="14.00">gini = 0.0</text>
<text text-anchor="start" x="145.5" y="-37.8" font-family="Helvetica,sans-Serif" font-size="14.00">samples = 1</text>
<text text-anchor="start" x="136" y="-22.8" font-family="Helvetica,sans-Serif" font-size="14.00">value = [0, 1, 0]</text>
<text text-anchor="start" x="155.5" y="-7.8" font-family="Helvetica,sans-Serif" font-size="14.00">class = a</text>
</g>
<!-- 6&#45;&gt;8 -->
<g id="edge8" class="edge">
<title>6&#45;&gt;8</title>
<path fill="none" stroke="black" d="M142.83,-103.73C147.9,-95.06 153.25,-85.9 158.35,-77.18"/>
<polygon fill="black" stroke="black" points="161.51,-78.7 163.54,-68.3 155.47,-75.17 161.51,-78.7"/>
</g>
<!-- 11 -->
<g id="node12" class="node">
<title>11</title>
<path fill="#ab7bee" stroke="black" d="M440,-306C440,-306 346,-306 346,-306 340,-306 334,-300 334,-294 334,-294 334,-235 334,-235 334,-229 340,-223 346,-223 346,-223 440,-223 440,-223 446,-223 452,-229 452,-235 452,-235 452,-294 452,-294 452,-300 446,-306 440,-306"/>
<text text-anchor="start" x="342" y="-290.8" font-family="Helvetica,sans-Serif" font-size="14.00">sepal.width ≤ 3.1</text>
<text text-anchor="start" x="357.5" y="-275.8" font-family="Helvetica,sans-Serif" font-size="14.00">gini = 0.375</text>
<text text-anchor="start" x="355.5" y="-260.8" font-family="Helvetica,sans-Serif" font-size="14.00">samples = 4</text>
<text text-anchor="start" x="346" y="-245.8" font-family="Helvetica,sans-Serif" font-size="14.00">value = [0, 1, 3]</text>
<text text-anchor="start" x="367" y="-230.8" font-family="Helvetica,sans-Serif" font-size="14.00">class = r</text>
</g>
<!-- 10&#45;&gt;11 -->
<g id="edge11" class="edge">
<title>10&#45;&gt;11</title>
<path fill="none" stroke="black" d="M393.65,-341.91C393.58,-333.65 393.51,-324.86 393.43,-316.3"/>
<polygon fill="black" stroke="black" points="396.93,-315.99 393.35,-306.02 389.93,-316.05 396.93,-315.99"/>
</g>
<!-- 14 -->
<g id="node15" class="node">
<title>14</title>
<path fill="#8139e5" stroke="black" d="M575.5,-298.5C575.5,-298.5 482.5,-298.5 482.5,-298.5 476.5,-298.5 470.5,-292.5 470.5,-286.5 470.5,-286.5 470.5,-242.5 470.5,-242.5 470.5,-236.5 476.5,-230.5 482.5,-230.5 482.5,-230.5 575.5,-230.5 575.5,-230.5 581.5,-230.5 587.5,-236.5 587.5,-242.5 587.5,-242.5 587.5,-286.5 587.5,-286.5 587.5,-292.5 581.5,-298.5 575.5,-298.5"/>
<text text-anchor="start" x="501" y="-283.3" font-family="Helvetica,sans-Serif" font-size="14.00">gini = 0.0</text>
<text text-anchor="start" x="488" y="-268.3" font-family="Helvetica,sans-Serif" font-size="14.00">samples = 37</text>
<text text-anchor="start" x="478.5" y="-253.3" font-family="Helvetica,sans-Serif" font-size="14.00">value = [0, 0, 37]</text>
<text text-anchor="start" x="503" y="-238.3" font-family="Helvetica,sans-Serif" font-size="14.00">class = r</text>
</g>
<!-- 10&#45;&gt;14 -->
<g id="edge14" class="edge">
<title>10&#45;&gt;14</title>
<path fill="none" stroke="black" d="M440.84,-341.91C454.46,-330.1 469.33,-317.22 482.9,-305.45"/>
<polygon fill="black" stroke="black" points="485.47,-307.86 490.73,-298.67 480.88,-302.57 485.47,-307.86"/>
</g>
<!-- 12 -->
<g id="node13" class="node">
<title>12</title>
<path fill="#8139e5" stroke="black" d="M433,-179.5C433,-179.5 347,-179.5 347,-179.5 341,-179.5 335,-173.5 335,-167.5 335,-167.5 335,-123.5 335,-123.5 335,-117.5 341,-111.5 347,-111.5 347,-111.5 433,-111.5 433,-111.5 439,-111.5 445,-117.5 445,-123.5 445,-123.5 445,-167.5 445,-167.5 445,-173.5 439,-179.5 433,-179.5"/>
<text text-anchor="start" x="362" y="-164.3" font-family="Helvetica,sans-Serif" font-size="14.00">gini = 0.0</text>
<text text-anchor="start" x="352.5" y="-149.3" font-family="Helvetica,sans-Serif" font-size="14.00">samples = 3</text>
<text text-anchor="start" x="343" y="-134.3" font-family="Helvetica,sans-Serif" font-size="14.00">value = [0, 0, 3]</text>
<text text-anchor="start" x="364" y="-119.3" font-family="Helvetica,sans-Serif" font-size="14.00">class = r</text>
</g>
<!-- 11&#45;&gt;12 -->
<g id="edge12" class="edge">
<title>11&#45;&gt;12</title>
<path fill="none" stroke="black" d="M391.96,-222.91C391.68,-212.2 391.39,-200.62 391.11,-189.78"/>
<polygon fill="black" stroke="black" points="394.61,-189.57 390.85,-179.67 387.61,-189.75 394.61,-189.57"/>
</g>
<!-- 13 -->
<g id="node14" class="node">
<title>13</title>
<path fill="#39e581" stroke="black" d="M561,-179.5C561,-179.5 475,-179.5 475,-179.5 469,-179.5 463,-173.5 463,-167.5 463,-167.5 463,-123.5 463,-123.5 463,-117.5 469,-111.5 475,-111.5 475,-111.5 561,-111.5 561,-111.5 567,-111.5 573,-117.5 573,-123.5 573,-123.5 573,-167.5 573,-167.5 573,-173.5 567,-179.5 561,-179.5"/>
<text text-anchor="start" x="490" y="-164.3" font-family="Helvetica,sans-Serif" font-size="14.00">gini = 0.0</text>
<text text-anchor="start" x="480.5" y="-149.3" font-family="Helvetica,sans-Serif" font-size="14.00">samples = 1</text>
<text text-anchor="start" x="471" y="-134.3" font-family="Helvetica,sans-Serif" font-size="14.00">value = [0, 1, 0]</text>
<text text-anchor="start" x="490.5" y="-119.3" font-family="Helvetica,sans-Serif" font-size="14.00">class = a</text>
</g>
<!-- 11&#45;&gt;13 -->
<g id="edge13" class="edge">
<title>11&#45;&gt;13</title>
<path fill="none" stroke="black" d="M436.37,-222.91C448.86,-211.21 462.49,-198.46 474.97,-186.78"/>
<polygon fill="black" stroke="black" points="477.66,-189.06 482.57,-179.67 472.87,-183.95 477.66,-189.06"/>
</g>
</g>
</svg>