<?xml version="1.0" encoding="UTF-8" standalone="no"?>
<!DOCTYPE svg PUBLIC "-//W3C//DTD SVG 1.1//EN"
 "http://www.w3.org/Graphics/SVG/1.1/DTD/svg11.dtd">
<!-- Generated by graphviz version 2.43.0 (0)
 -->
<!-- Title: Tree Pages: 1 -->
<svg width="541pt" height="671pt"
 viewBox="0.00 0.00 541.00 671.00" xmlns="http://www.w3.org/2000/svg" xmlns:xlink="http://www.w3.org/1999/xlink">
<g id="graph0" class="graph" transform="scale(1 1) rotate(0) translate(4 667)">
<title>Tree</title>
<polygon fill="white" stroke="transparent" points="-4,4 -4,-667 537,-667 537,4 -4,4"/>
<!-- 0 -->
<g id="node1" class="node">
<title>0</title>
<path fill="#f7f3fd" stroke="black" d="M250.5,-663C250.5,-663 142.5,-663 142.5,-663 136.5,-663 130.5,-657 130.5,-651 130.5,-651 130.5,-592 130.5,-592 130.5,-586 136.5,-580 142.5,-580 142.5,-580 250.5,-580 250.5,-580 256.5,-580 262.5,-586 262.5,-592 262.5,-592 262.5,-651 262.5,-651 262.5,-657 256.5,-663 250.5,-663"/>
<text text-anchor="start" x="144.5" y="-647.8" font-family="Helvetica,sans-Serif" font-size="14.00">petal.length ≤ 2.6</text>
<text text-anchor="start" x="161" y="-632.8" font-family="Helvetica,sans-Serif" font-size="14.00">gini = 0.665</text>
<text text-anchor="start" x="151.5" y="-617.8" font-family="Helvetica,sans-Serif" font-size="14.00">samples = 120</text>
<text text-anchor="start" x="138.5" y="-602.8" font-family="Helvetica,sans-Serif" font-size="14.00">value = [39, 37, 44]</text>
<text text-anchor="start" x="170.5" y="-587.8" font-family="Helvetica,sans-Serif" font-size="14.00">class = r</text>
</g>
<!-- 1 -->
<g id="node2" class="node">
<title>1</title>
<path fill="#e58139" stroke="black" d="M174,-536.5C174,-536.5 81,-536.5 81,-536.5 75,-536.5 69,-530.5 69,-524.5 69,-524.5 69,-480.5 69,-480.5 69,-474.5 75,-468.5 81,-468.5 81,-468.5 174,-468.5 174,-468.5 180,-468.5 186,-474.5 186,-480.5 186,-480.5 186,-524.5 186,-524.5 186,-530.5 180,-536.5 174,-536.5"/>
<text text-anchor="start" x="99.5" y="-521.3" font-family="Helvetica,sans-Serif" font-size="14.00">gini = 0.0</text>
<text text-anchor="start" x="86.5" y="-506.3" font-family="Helvetica,sans-Serif" font-size="14.00">samples = 39</text>
<text text-anchor="start" x="77" y="-491.3" font-family="Helvetica,sans-Serif" font-size="14.00">value = [39, 0, 0]</text>
<text text-anchor="start" x="100.5" y="-476.3" font-family="Helvetica,sans-Serif" font-size="14.00">class = v</text>
</g>
<!-- 0&#45;&gt;1 -->
<g id="edge1" class="edge">
<title>0&#45;&gt;1</title>
<path fill="none" stroke="black" d="M172.56,-579.91C165.99,-568.76 158.85,-556.66 152.23,-545.44"/>
<polygon fill="black" stroke="black" points="155.15,-543.5 147.06,-536.67 149.13,-547.06 155.15,-543.5"/>
<text text-anchor="middle" x="140.81" y="-557.17" font-family="Helvetica,sans-Serif" font-size="14.00">True</text>
</g>
<!-- 2 -->
<g id="node3" class="node">
<title>2</title>
<path fill="#ebe0fb" stroke="black" d="M317,-544C317,-544 216,-544 216,-544 210,-544 204,-538 204,-532 204,-532 204,-473 204,-473 204,-467 210,-461 216,-461 216,-461 317,-461 317,-461 323,-461 329,-467 329,-473 329,-473 329,-532 329,-532 329,-538 323,-544 317,-544"/>
<text text-anchor="start" x="213.5" y="-528.8" font-family="Helvetica,sans-Serif" font-size="14.00">petal.width ≤ 1.65</text>
<text text-anchor="start" x="231" y="-513.8" font-family="Helvetica,sans-Serif" font-size="14.00">gini = 0.496</text>
<text text-anchor="start" x="225.5" y="-498.8" font-family="Helvetica,sans-Serif" font-size="14.00">samples = 81</text>
<text text-anchor="start" x="212" y="-483.8" font-family="Helvetica,sans-Serif" font-size="14.00">value = [0, 37, 44]</text>
<text text-anchor="start" x="240.5" y="-468.8" font-family="Helvetica,sans-Serif" font-size="14.00">class = r</text>
</g>
<!-- 0&#45;&gt;2 -->
<g id="edge2" class="edge">
<title>0&#45;&gt;2</title>
<path fill="none" stroke="black" d="M220.79,-579.91C226.05,-571.1 231.68,-561.7 237.12,-552.61"/>
<polygon fill="black" stroke="black" points="240.13,-554.4 242.26,-544.02 234.12,-550.81 240.13,-554.4"/>
<text text-anchor="middle" x="248.35" y="-564.57" font-family="Helvetica,sans-Serif" font-size="14.00">False</text>
</g>
<!-- 3 -->
<g id="node4" class="node">
<title>3</title>
<path fill="#4fe88f" stroke="black" d="M245.5,-425C245.5,-425 141.5,-425 141.5,-425 135.5,-425 129.5,-419 129.5,-413 129.5,-413 129.5,-354 129.5,-354 129.5,-348 135.5,-342 141.5,-342 141.5,-342 245.5,-342 245.5,-342 251.5,-342 257.5,-348 257.5,-354 257.5,-354 257.5,-413 257.5,-413 257.5,-419 251.5,-425 245.5,-425"/>
<text text-anchor="start" x="137.5" y="-409.8" font-family="Helvetica,sans-Serif" font-size="14.00">petal.length ≤ 4.95</text>
<text text-anchor="start" x="161.5" y="-394.8" font-family="Helvetica,sans-Serif" font-size="14.00">gini = 0.18</text>
<text text-anchor="start" x="152.5" y="-379.8" font-family="Helvetica,sans-Serif" font-size="14.00">samples = 40</text>
<text text-anchor="start" x="143" y="-364.8" font-family="Helvetica,sans-Serif" font-size="14.00">value = [0, 36, 4]</text>
<text text-anchor="start" x="166" y="-349.8" font-family="Helvetica,sans-Serif" font-size="14.00">class = a</text>
</g>
<!-- 2&#45;&gt;3 -->
<g id="edge3" class="edge">
<title>2&#45;&gt;3</title>
<path fill="none" stroke="black" d="M241.17,-460.91C235.68,-452.1 229.81,-442.7 224.14,-433.61"/>
<polygon fill="black" stroke="black" points="227.05,-431.65 218.78,-425.02 221.11,-435.36 227.05,-431.65"/>
</g>
<!-- 10 -->
<g id="node11" class="node">
<title>10</title>
<path fill="#843ee6" stroke="black" d="M391.5,-425C391.5,-425 287.5,-425 287.5,-425 281.5,-425 275.5,-419 275.5,-413 275.5,-413 275.5,-354 275.5,-354 275.5,-348 281.5,-342 287.5,-342 287.5,-342 391.5,-342 391.5,-342 397.5,-342 403.5,-348 403.5,-354 403.5,-354 403.5,-413 403.5,-413 403.5,-419 397.5,-425 391.5,-425"/>
<text text-anchor="start" x="283.5" y="-409.8" font-family="Helvetica,sans-Serif" font-size="14.00">petal.length ≤ 4.85</text>
<text text-anchor="start" x="304" y="-394.8" font-family="Helvetica,sans-Serif" font-size="14.00">gini = 0.048</text>
<text text-anchor="start" x="298.5" y="-379.8" font-family="Helvetica,sans-Serif" font-size="14.00">samples = 41</text>
<text text-anchor="start" x="289" y="-364.8" font-family="Helvetica,sans-Serif" font-size="14.00">value = [0, 1, 40]</text>
<text text-anchor="start" x="313.5" y="-349.8" font-family="Helvetica,sans-Serif" font-size="14.00">class = r</text>
</g>
<!-- 2&#45;&gt;10 -->
<g id="edge10" class="edge">
<title>2&#45;&gt;10</title>
<path fill="none" stroke="black" d="M291.83,-460.91C297.32,-452.1 303.19,-442.7 308.86,-433.61"/>
<polygon fill="black" stroke="black" points="311.89,-435.36 314.22,-425.02 305.95,-431.65 311.89,-435.36"/>
</g>
<!-- 4 -->
<g id="node5" class="node">
<title>4</title>
<path fill="#39e581" stroke="black" d="M105,-298.5C105,-298.5 12,-298.5 12,-298.5 6,-298.5 0,-292.5 0,-286.5 0,-286.5 0,-242.5 0,-242.5 0,-236.5 6,-230.5 12,-230.5 12,-230.5 105,-230.5 105,-230.5 111,-230.5 117,-236.5 117,-242.5 117,-242.5 117,-286.5 117,-286.5 117,-292.5 111,-298.5 105,-298.5"/>
<text text-anchor="start" x="30.5" y="-283.3" font-family="Helvetica,sans-Serif" font-size="14.00">gini = 0.0</text>
<text text-anchor="start" x="17.5" y="-268.3" font-family="Helvetica,sans-Serif" font-size="14.00">samples = 35</text>
<text text-anchor="start" x="8" y="-253.3" font-family="Helvetica,sans-Serif" font-size="14.00">value = [0, 35, 0]</text>
<text text-anchor="start" x="31" y="-238.3" font-family="Helvetica,sans-Serif" font-size="14.00">class = a</text>
</g>
<!-- 3&#45;&gt;4 -->
<g id="edge4" class="edge">
<title>3&#45;&gt;4</title>
<path fill="none" stroke="black" d="M146.66,-341.91C133.04,-330.1 118.17,-317.22 104.6,-305.45"/>
<polygon fill="black" stroke="black" points="106.62,-302.57 96.77,-298.67 102.03,-307.86 106.62,-302.57"/>
</g>
<!-- 5 -->
<g id="node6" class="node">
<title>5</title>
<path fill="#a06aec" stroke="black" d="M245.5,-306C245.5,-306 147.5,-306 147.5,-306 141.5,-306 135.5,-300 135.5,-294 135.5,-294 135.5,-235 135.5,-235 135.5,-229 141.5,-223 147.5,-223 147.5,-223 245.5,-223 245.5,-223 251.5,-223 257.5,-229 257.5,-235 257.5,-235 257.5,-294 257.5,-294 257.5,-300 251.5,-306 245.5,-306"/>
<text text-anchor="start" x="143.5" y="-290.8" font-family="Helvetica,sans-Serif" font-size="14.00">petal.width ≤ 1.55</text>
<text text-anchor="start" x="164.5" y="-275.8" font-family="Helvetica,sans-Serif" font-size="14.00">gini = 0.32</text>
<text text-anchor="start" x="159" y="-260.8" font-family="Helvetica,sans-Serif" font-size="14.00">samples = 5</text>
<text text-anchor="start" x="149.5" y="-245.8" font-family="Helvetica,sans-Serif" font-size="14.00">value = [0, 1, 4]</text>
<text text-anchor="start" x="170.5" y="-230.8" font-family="Helvetica,sans-Serif" font-size="14.00">class = r</text>
</g>
<!-- 3&#45;&gt;5 -->
<g id="edge5" class="edge">
<title>3&#45;&gt;5</title>
<path fill="none" stroke="black" d="M194.54,-341.91C194.75,-333.56 194.98,-324.67 195.2,-316.02"/>
<polygon fill="black" stroke="black" points="198.7,-316.11 195.46,-306.02 191.71,-315.93 198.7,-316.11"/>
</g>
<!-- 6 -->
<g id="node7" class="node">
<title>6</title>
<path fill="#8139e5" stroke="black" d="M105.5,-179.5C105.5,-179.5 19.5,-179.5 19.5,-179.5 13.5,-179.5 7.5,-173.5 7.5,-167.5 7.5,-167.5 7.5,-123.5 7.5,-123.5 7.5,-117.5 13.5,-111.5 19.5,-111.5 19.5,-111.5 105.5,-111.5 105.5,-111.5 111.5,-111.5 117.5,-117.5 117.5,-123.5 117.5,-123.5 117.5,-167.5 117.5,-167.5 117.5,-173.5 111.5,-179.5 105.5,-179.5"/>
<text text-anchor="start" x="34.5" y="-164.3" font-family="Helvetica,sans-Serif" font-size="14.00">gini = 0.0</text>
<text text-anchor="start" x="25" y="-149.3" font-family="Helvetica,sans-Serif" font-size="14.00">samples = 3</text>
<text text-anchor="start" x="15.5" y="-134.3" font-family="Helvetica,sans-Serif" font-size="14.00">value = [0, 0, 3]</text>
<text text-anchor="start" x="36.5" y="-119.3" font-family="Helvetica,sans-Serif" font-size="14.00">class = r</text>
</g>
<!-- 5&#45;&gt;6 -->
<g id="edge6" class="edge">
<title>5&#45;&gt;6</title>
<path fill="none" stroke="black" d="M150.01,-222.91C136.49,-211.1 121.73,-198.22 108.25,-186.45"/>
<polygon fill="black" stroke="black" points="110.32,-183.61 100.49,-179.67 105.72,-188.88 110.32,-183.61"/>
</g>
<!-- 7 -->
<g id="node8" class="node">
<title>7</title>
<path fill="#ffffff" stroke="black" d="M247,-187C247,-187 148,-187 148,-187 142,-187 136,-181 136,-175 136,-175 136,-116 136,-116 136,-110 142,-104 148,-104 148,-104 247,-104 247,-104 253,-104 259,-110 259,-116 259,-116 259,-175 259,-175 259,-181 253,-187 247,-187"/>
<text text-anchor="start" x="144" y="-171.8" font-family="Helvetica,sans-Serif" font-size="14.00">sepal.length ≤ 6.6</text>
<text text-anchor="start" x="169.5" y="-156.8" font-family="Helvetica,sans-Serif" font-size="14.00">gini = 0.5</text>
<text text-anchor="start" x="160" y="-141.8" font-family="Helvetica,sans-Serif" font-size="14.00">samples = 2</text>
<text text-anchor="start" x="150.5" y="-126.8" font-family="Helvetica,sans-Serif" font-size="14.00">value = [0, 1, 1]</text>
<text text-anchor="start" x="170" y="-111.8" font-family="Helvetica,sans-Serif" font-size="14.00">class = a</text>
</g>
<!-- 5&#45;&gt;7 -->
<g id="edge7" class="edge">
<title>5&#45;&gt;7</title>
<path fill="none" stroke="black" d="M196.85,-222.91C196.92,-214.65 196.99,-205.86 197.07,-197.3"/>
<polygon fill="black" stroke="black" points="200.57,-197.05 197.15,-187.02 193.57,-196.99 200.57,-197.05"/>
</g>
<!-- 8 -->
<g id="node9" class="node">
<title>8</title>
<path fill="#39e581" stroke="black" d="M176.5,-68C176.5,-68 90.5,-68 90.5,-68 84.5,-68 78.5,-62 78.5,-56 78.5,-56 78.5,-12 78.5,-12 78.5,-6 84.5,0 90.5,0 90.5,0 176.5,0 176.5,0 182.5,0 188.5,-6 188.5,-12 188.5,-12 188.5,-56 188.5,-56 188.5,-62 182.5,-68 176.5,-68"/>
<text text-anchor="start" x="105.5" y="-52.8" font-family="Helvetica,sans-Serif" font-size="14.00">gini = 0.0</text>
<text text-anchor="start" x="96" y="-37.8" font-family="Helvetica,sans-Serif" font-size="14.00">samples = 1</text>
<text text-anchor="start" x="86.5" y="-22.8" font-family="Helvetica,sans-Serif" font-size="14.00">value = [0, 1, 0]</text>
<text text-anchor="start" x="106" y="-7.8" font-family="Helvetica,sans-Serif" font-size="14.00">class = a</text>
</g>
<!-- 7&#45;&gt;8 -->
<g id="edge8" class="edge">
<title>7&#45;&gt;8</title>
<path fill="none" stroke="black" d="M173.67,-103.73C168.6,-95.06 163.25,-85.9 158.15,-77.18"/>
<polygon fill="black" stroke="black" points="161.03,-75.17 152.96,-68.3 154.99,-78.7 161.03,-75.17"/>
</g>
<!-- 9 -->
<g id="node10" class="node">
<title>9</title>
<path fill="#8139e5" stroke="black" d="M304.5,-68C304.5,-68 218.5,-68 218.5,-68 212.5,-68 206.5,-62 206.5,-56 206.5,-56 206.5,-12 206.5,-12 206.5,-6 212.5,0 218.5,0 218.5,0 304.5,0 304.5,0 310.5,0 316.5,-6 316.5,-12 316.5,-12 316.5,-56 316.5,-56 316.5,-62 310.5,-68 304.5,-68"/>
<text text-anchor="start" x="233.5" y="-52.8" font-family="Helvetica,sans-Serif" font-size="14.00">gini = 0.0</text>
<text text-anchor="start" x="224" y="-37.8" font-family="Helvetica,sans-Serif" font-size="14.00">samples = 1</text>
<text text-anchor="start" x="214.5" y="-22.8" font-family="Helvetica,sans-Serif" font-size="14.00">value = [0, 0, 1]</text>
<text text-anchor="start" x="235.5" y="-7.8" font-family="Helvetica,sans-Serif" font-size="14.00">class = r</text>
</g>
<!-- 7&#45;&gt;9 -->
<g id="edge9" class="edge">
<title>7&#45;&gt;9</title>
<path fill="none" stroke="black" d="M221.33,-103.73C226.4,-95.06 231.75,-85.9 236.85,-77.18"/>
<polygon fill="black" stroke="black" points="240.01,-78.7 242.04,-68.3 233.97,-75.17 240.01,-78.7"/>
</g>
<!-- 11 -->
<g id="node12" class="node">
<title>11</title>
<path fill="#ab7bee" stroke="black" d="M385.5,-306C385.5,-306 291.5,-306 291.5,-306 285.5,-306 279.5,-300 279.5,-294 279.5,-294 279.5,-235 279.5,-235 279.5,-229 285.5,-223 291.5,-223 291.5,-223 385.5,-223 385.5,-223 391.5,-223 397.5,-229 397.5,-235 397.5,-235 397.5,-294 397.5,-294 397.5,-300 391.5,-306 385.5,-306"/>
<text text-anchor="start" x="287.5" y="-290.8" font-family="Helvetica,sans-Serif" font-size="14.00">sepal.width ≤ 3.1</text>
<text text-anchor="start" x="303" y="-275.8" font-family="Helvetica,sans-Serif" font-size="14.00">gini = 0.375</text>
<text text-anchor="start" x="301" y="-260.8" font-family="Helvetica,sans-Serif" font-size="14.00">samples = 4</text>
<text text-anchor="start" x="291.5" y="-245.8" font-family="Helvetica,sans-Serif" font-size="14.00">value = [0, 1, 3]</text>
<text text-anchor="start" x="312.5" y="-230.8" font-family="Helvetica,sans-Serif" font-size="14.00">class = r</text>
</g>
<!-- 10&#45;&gt;11 -->
<g id="edge11" class="edge">
<title>10&#45;&gt;11</title>
<path fill="none" stroke="black" d="M339.15,-341.91C339.08,-333.65 339.01,-324.86 338.93,-316.3"/>
<polygon fill="black" stroke="black" points="342.43,-315.99 338.85,-306.02 335.43,-316.05 342.43,-315.99"/>
</g>
<!-- 14 -->
<g id="node15" class="node">
<title>14</title>
<path fill="#8139e5" stroke="black" d="M521,-298.5C521,-298.5 428,-298.5 428,-298.5 422,-298.5 416,-292.5 416,-286.5 416,-286.5 416,-242.5 416,-242.5 416,-236.5 422,-230.5 428,-230.5 428,-230.5 521,-230.5 521,-230.5 527,-230.5 533,-236.5 533,-242.5 533,-242.5 533,-286.5 533,-286.5 533,-292.5 527,-298.5 521,-298.5"/>
<text text-anchor="start" x="446.5" y="-283.3" font-family="Helvetica,sans-Serif" font-size="14.00">gini = 0.0</text>
<text text-anchor="start" x="433.5" y="-268.3" font-family="Helvetica,sans-Serif" font-size="14.00">samples = 37</text>
<text text-anchor="start" x="424" y="-253.3" font-family="Helvetica,sans-Serif" font-size="14.00">value = [0, 0, 37]</text>
<text text-anchor="start" x="448.5" y="-238.3" font-family="Helvetica,sans-Serif" font-size="14.00">class = r</text>
</g>
<!-- 10&#45;&gt;14 -->
<g id="edge14" class="edge">
<title>10&#45;&gt;14</title>
<path fill="none" stroke="black" d="M386.34,-341.91C399.96,-330.1 414.83,-317.22 428.4,-305.45"/>
<polygon fill="black" stroke="black" points="430.97,-307.86 436.23,-298.67 426.38,-302.57 430.97,-307.86"/>
</g>
<!-- 12 -->
<g id="node13" class="node">
<title>12</title>
<path fill="#8139e5" stroke="black" d="M380.5,-179.5C380.5,-179.5 294.5,-179.5 294.5,-179.5 288.5,-179.5 282.5,-173.5 282.5,-167.5 282.5,-167.5 282.5,-123.5 282.5,-123.5 282.5,-117.5 288.5,-111.5 294.5,-111.5 294.5,-111.5 380.5,-111.5 380.5,-111.5 386.5,-111.5 392.5,-117.5 392.5,-123.5 392.5,-123.5 392.5,-167.5 392.5,-167.5 392.5,-173.5 386.5,-179.5 380.5,-179.5"/>
<text text-anchor="start" x="309.5" y="-164.3" font-family="Helvetica,sans-Serif" font-size="14.00">gini = 0.0</text>
<text text-anchor="start" x="300" y="-149.3" font-family="Helvetica,sans-Serif" font-size="14.00">samples = 3</text>
<text text-anchor="start" x="290.5" y="-134.3" font-family="Helvetica,sans-Serif" font-size="14.00">value = [0, 0, 3]</text>
<text text-anchor="start" x="311.5" y="-119.3" font-family="Helvetica,sans-Serif" font-size="14.00">class = r</text>
</g>
<!-- 11&#45;&gt;12 -->
<g id="edge12" class="edge">
<title>11&#45;&gt;12</title>
<path fill="none" stroke="black" d="M338.15,-222.91C338.06,-212.2 337.96,-200.62 337.87,-189.78"/>
<polygon fill="black" stroke="black" points="341.37,-189.64 337.78,-179.67 334.37,-189.7 341.37,-189.64"/>
</g>
<!-- 13 -->
<g id="node14" class="node">
<title>13</title>
<path fill="#39e581" stroke="black" d="M508.5,-179.5C508.5,-179.5 422.5,-179.5 422.5,-179.5 416.5,-179.5 410.5,-173.5 410.5,-167.5 410.5,-167.5 410.5,-123.5 410.5,-123.5 410.5,-117.5 416.5,-111.5 422.5,-111.5 422.5,-111.5 508.5,-111.5 508.5,-111.5 514.5,-111.5 520.5,-117.5 520.5,-123.5 520.5,-123.5 520.5,-167.5 520.5,-167.5 520.5,-173.5 514.5,-179.5 508.5,-179.5"/>
<text text-anchor="start" x="437.5" y="-164.3" font-family="Helvetica,sans-Serif" font-size="14.00">gini = 0.0</text>
<text text-anchor="start" x="428" y="-149.3" font-family="Helvetica,sans-Serif" font-size="14.00">samples = 1</text>
<text text-anchor="start" x="418.5" y="-134.3" font-family="Helvetica,sans-Serif" font-size="14.00">value = [0, 1, 0]</text>
<text text-anchor="start" x="438" y="-119.3" font-family="Helvetica,sans-Serif" font-size="14.00">class = a</text>
</g>
<!-- 11&#45;&gt;13 -->
<g id="edge13" class="edge">
<title>11&#45;&gt;13</title>
<path fill="none" stroke="black" d="M382.56,-222.91C395.38,-211.1 409.36,-198.22 422.14,-186.45"/>
<polygon fill="black" stroke="black" points="424.52,-189.02 429.5,-179.67 419.77,-183.87 424.52,-189.02"/>
</g>
</g>
</svg>